<svg version="1.2" xmlns="http://www.w3.org/2000/svg" viewBox="0 0 2200 2200" width="2200" height="2200">
	<style>
		.s0 { fill: #c47743 } 
		.s1 { fill: #aa693c } 
		.s2 { fill: #e28947 } 
		.s3 { fill: #7bc97b } 
		.s4 { fill: #b3e08c } 
		.s5 { fill: #70ba70 } 
		.s6 { fill: #a0c979 } 
		.s7 { fill: #ffbf31 } 
	</style>
	<g id="background">
	</g>
	<g id="Objects">
		<g id="&lt;Group&gt;">
			<g id="&lt;Group&gt;">
				<path id="&lt;Path&gt;" class="s0" d="m1680.79 570.48v166.38h-1216.26c-24.51 0-47.07-8.38-64.96-22.41q-5.03-3.95-9.54-8.46c-19.07-19.06-30.87-45.41-30.87-74.5 0-58.18 47.18-105.36 105.37-105.36h1171.93c24.49 0 44.33 19.86 44.33 44.35z"/>
				<path id="&lt;Path&gt;" class="s1" d="m1680.79 714.45v22.41h-1216.26c-24.51 0-47.07-8.38-64.96-22.41q-5.03-3.95-9.54-8.46c-12.17-12.16-21.37-27.29-26.43-44.21q0.8 1.14 1.63 2.26c23.5 31.97 61.19 50.41 100.87 50.41z"/>
				<path id="&lt;Path&gt;" class="s2" d="m1797.48 781.19v969.23c0 24.48-19.84 44.33-44.33 44.33h-1287.58c-58.76 0-106.41-47.64-106.41-106.41v-1056.85c0 29.09 11.8 55.44 30.87 74.5 19.06 19.07 45.4 30.87 74.5 30.87h1288.62c24.49 0 44.33 19.84 44.33 44.33z"/>
				<path id="&lt;Path&gt;" class="s3" d="m498.3 736.85l162.36-210.71 235.54-305.72c8.72-11.33 24.97-13.43 36.29-4.71l180.94 139.41-383.61 381.73z"/>
				<path id="&lt;Path&gt;" class="s4" d="m1062.91 392.51l-371.91 317.38-31.61 26.97h-92.48l9.1-11.83 153.25-198.9 145.52-188.86c29.35 22.61 71.47 17.15 94.09-12.2q1.22-1.59 2.33-3.22l73.29 56.47z"/>
				<path id="&lt;Path&gt;" class="s5" d="m1113.43 355.12l-329.14 327.53-93.29 27.24 371.91-317.38-18.42-14.19 50.53-37.39z"/>
				<path id="&lt;Path&gt;" class="s6" d="m1062.91 392.51l-371.91 317.38-92.4 26.97h-38.56l15.97-11.83 11.7-8.65 2.61-1.93 454.17-336.13z"/>
				<path id="&lt;Path&gt;" class="s3" d="m1396.9 494.34l-778.72 227.32 51.98-38.48 539.06-398.94c11.48-8.5 27.7-6.08 36.19 5.4l137.32 185.55z"/>
				<path id="&lt;Path&gt;" class="s4" d="m1335.06 512.39l-566.02 165.23 51.99-38.47 335.61-248.38c22.03 29.78 64.04 36.06 93.83 14.01q1.6-1.18 3.12-2.46l67.3 90.92z"/>
				<path id="&lt;Path&gt;" class="s3" d="m1592.27 736.85l-61.49-210.71-11.82-40.46c-4-13.72-18.37-21.59-32.09-17.59l-198.86 58.05-721.91 210.71z"/>
				<path id="&lt;Path&gt;" class="s5" d="m1396.9 494.34l-61.84 18.05-14.17-19.15 61.84-18.05z"/>
				<path id="&lt;Path&gt;" class="s6" d="m1335.06 512.39l-566.02 165.23 51.99-38.47 436.3-127.35 63.56-18.56z"/>
				<path id="&lt;Path&gt;" class="s4" d="m1529.3 736.85l-41.62-142.61q-1.86 0.66-3.8 1.22c-35.56 10.39-72.81-10.04-83.18-45.6l-640.64 186.99z"/>
				<path id="&lt;Path&gt;" class="s5" d="m836.85 714.45l-76.79 22.41h-193.96l76.78-22.41z"/>
				<path id="&lt;Path&gt;" class="s5" d="m1592.27 736.86h-62.97l-6.54-22.41h62.97z"/>
				<path id="&lt;Path&gt;" class="s6" d="m1529.3 736.86h-769.24l76.79-22.41h685.91z"/>
				<path id="&lt;Path&gt;" class="s6" d="m642.88 714.45l-76.78 22.41h-6.06l24.13-22.41z"/>
				<path id="&lt;Path&gt;" class="s5" d="m821.03 639.15l-51.99 38.47-150.86 44.04 51.98-38.48z"/>
				<path id="&lt;Path&gt;" class="s5" d="m584.17 714.45l-17.26 22.41h-68.61l17.26-22.41z"/>
				<g id="&lt;Group&gt;">
					<path id="&lt;Path&gt;" class="s1" d="m497.08 847.68h-51.14c-9.97 0-18.06-8.09-18.06-18.06 0-9.98 8.09-18.07 18.06-18.07h51.14c9.98 0 18.07 8.09 18.07 18.07 0 9.97-8.09 18.06-18.07 18.06z"/>
					<path id="&lt;Compound Path&gt;" class="s1" d="m1653.24 1731.34h-44.46c-9.98 0-18.07-8.09-18.07-18.06 0-9.98 8.09-18.07 18.07-18.07h44.46c9.98 0 18.07 8.09 18.07 18.07 0 9.97-8.09 18.06-18.07 18.06zm-115.6 0h-44.47c-9.98 0-18.07-8.09-18.07-18.06 0-9.98 8.09-18.07 18.07-18.07h44.47c9.97 0 18.06 8.09 18.06 18.07 0 9.97-8.09 18.06-18.06 18.06zm-115.61 0h-44.47c-9.97 0-18.06-8.09-18.06-18.06 0-9.98 8.09-18.07 18.06-18.07h44.47c9.98 0 18.06 8.09 18.06 18.07 0 9.97-8.08 18.06-18.06 18.06zm-115.61 0h-44.47c-9.97 0-18.06-8.09-18.06-18.06 0-9.98 8.09-18.07 18.06-18.07h44.47c9.98 0 18.07 8.09 18.07 18.07 0 9.97-8.09 18.06-18.07 18.06zm-115.61 0h-44.46c-9.98 0-18.07-8.09-18.07-18.06 0-9.98 8.09-18.07 18.07-18.07h44.46c9.98 0 18.07 8.09 18.07 18.07 0 9.97-8.09 18.06-18.07 18.06zm-115.61 0h-44.46c-9.98 0-18.07-8.09-18.07-18.06 0-9.98 8.09-18.07 18.07-18.07h44.46c9.98 0 18.07 8.09 18.07 18.07 0 9.97-8.09 18.06-18.07 18.06zm-115.61 0h-44.46c-9.98 0-18.07-8.09-18.07-18.06 0-9.98 8.09-18.07 18.07-18.07h44.46c9.98 0 18.07 8.09 18.07 18.07 0 9.97-8.09 18.06-18.07 18.06zm-115.61 0h-44.46c-9.98 0-18.07-8.09-18.07-18.06 0-9.98 8.09-18.07 18.07-18.07h44.46c9.98 0 18.07 8.09 18.07 18.07 0 9.97-8.09 18.06-18.07 18.06zm-115.6 0h-44.47c-9.98 0-18.06-8.09-18.06-18.06 0-9.98 8.08-18.07 18.06-18.07h44.47c9.97 0 18.06 8.09 18.06 18.07 0 9.97-8.09 18.06-18.06 18.06zm-115.61 0h-44.47c-9.98 0-18.06-8.09-18.06-18.06 0-9.98 8.08-18.07 18.06-18.07h44.47c9.98 0 18.06 8.09 18.06 18.07 0 9.97-8.08 18.06-18.06 18.06zm1106.13-16.35c-3.52 0-7.08-1.03-10.21-3.17-8.22-5.65-10.31-16.9-4.66-25.12 2.23-3.25 3.41-7.07 3.41-11.05v-21.85c0-9.97 8.09-18.06 18.07-18.06 9.97 0 18.06 8.09 18.06 18.06v21.85c0 11.31-3.37 22.2-9.76 31.5-3.5 5.1-9.15 7.84-14.91 7.84zm6.61-114.26c-9.98 0-18.07-8.09-18.07-18.07v-44.46c0-9.98 8.09-18.07 18.07-18.07 9.97 0 18.06 8.09 18.06 18.07v44.46c0 9.98-8.09 18.07-18.06 18.07zm0-115.61c-9.98 0-18.07-8.09-18.07-18.07v-44.46c0-9.98 8.09-18.07 18.07-18.07 9.97 0 18.06 8.09 18.06 18.07v44.46c0 9.98-8.09 18.07-18.06 18.07zm0-115.61c-9.98 0-18.07-8.09-18.07-18.07v-44.46c0-9.98 8.09-18.07 18.07-18.07 9.97 0 18.06 8.09 18.06 18.07v44.46c0 9.98-8.09 18.07-18.06 18.07zm0-115.61c-9.98 0-18.07-8.09-18.07-18.06v-44.47c0-9.98 8.09-18.07 18.07-18.07 9.97 0 18.06 8.09 18.06 18.07v44.47c0 9.97-8.09 18.06-18.06 18.06zm0-115.61c-9.98 0-18.07-8.09-18.07-18.06v-44.47c0-9.98 8.09-18.06 18.07-18.06 9.97 0 18.06 8.08 18.06 18.06v44.47c0 9.97-8.09 18.06-18.06 18.06zm0-115.61c-9.98 0-18.07-8.08-18.07-18.06v-44.47c0-9.97 8.09-18.06 18.07-18.06 9.97 0 18.06 8.09 18.06 18.06v44.47c0 9.98-8.09 18.06-18.06 18.06zm0-115.6c-9.98 0-18.07-8.09-18.07-18.07v-21.77c0-3.99-1.19-7.82-3.44-11.08-5.66-8.21-3.6-19.46 4.62-25.13 8.21-5.66 19.46-3.6 25.13 4.61 6.42 9.32 9.82 20.25 9.82 31.6v21.77c0 9.98-8.09 18.07-18.06 18.07zm-72.34-59.4h-44.47c-9.98 0-18.06-8.09-18.06-18.06 0-9.98 8.08-18.07 18.06-18.07h44.47c9.97 0 18.06 8.09 18.06 18.07 0 9.97-8.09 18.06-18.06 18.06zm-115.61 0h-44.47c-9.97 0-18.06-8.09-18.06-18.06 0-9.98 8.09-18.07 18.06-18.07h44.47c9.98 0 18.06 8.09 18.06 18.07 0 9.97-8.08 18.06-18.06 18.06zm-115.61 0h-44.47c-9.97 0-18.06-8.09-18.06-18.06 0-9.98 8.09-18.07 18.06-18.07h44.47c9.98 0 18.07 8.09 18.07 18.07 0 9.97-8.09 18.06-18.07 18.06zm-115.61 0h-44.46c-9.98 0-18.07-8.09-18.07-18.06 0-9.98 8.09-18.07 18.07-18.07h44.46c9.98 0 18.07 8.09 18.07 18.07 0 9.97-8.09 18.06-18.07 18.06zm-115.61 0h-44.46c-9.98 0-18.07-8.09-18.07-18.06 0-9.98 8.09-18.07 18.07-18.07h44.46c9.98 0 18.07 8.09 18.07 18.07 0 9.97-8.09 18.06-18.07 18.06zm-115.61 0h-44.46c-9.98 0-18.07-8.09-18.07-18.06 0-9.98 8.09-18.07 18.07-18.07h44.46c9.98 0 18.07 8.09 18.07 18.07 0 9.97-8.09 18.06-18.07 18.06zm-115.6 0h-44.47c-9.98 0-18.07-8.09-18.07-18.06 0-9.98 8.09-18.07 18.07-18.07h44.47c9.97 0 18.06 8.09 18.06 18.07 0 9.97-8.09 18.06-18.06 18.06zm-115.61 0h-44.47c-9.98 0-18.06-8.09-18.06-18.06 0-9.98 8.08-18.07 18.06-18.07h44.47c9.97 0 18.06 8.09 18.06 18.07 0 9.97-8.09 18.06-18.06 18.06zm-115.61 0h-44.47c-9.97 0-18.06-8.09-18.06-18.06 0-9.98 8.09-18.07 18.06-18.07h44.47c9.98 0 18.07 8.09 18.07 18.07 0 9.97-8.09 18.06-18.07 18.06zm-115.61 0h-44.46c-9.98 0-18.07-8.09-18.07-18.06 0-9.98 8.09-18.07 18.07-18.07h44.46c9.98 0 18.07 8.09 18.07 18.07 0 9.97-8.09 18.06-18.07 18.06z"/>
					<path id="&lt;Path&gt;" class="s1" d="m497.08 1731.34h-51.14c-9.97 0-18.06-8.09-18.06-18.06 0-9.98 8.09-18.07 18.06-18.07h51.14c9.98 0 18.07 8.09 18.07 18.07 0 9.97-8.09 18.06-18.07 18.06z"/>
				</g>
				<path id="&lt;Path&gt;" class="s0" d="m1675.24 1389.36h124.57c22.66 0 41.03-18.37 41.03-41.02v-165.07c0-22.66-18.37-41.03-41.03-41.03h-124.57c-68.24 0-123.56 55.32-123.56 123.56 0 68.24 55.32 123.56 123.56 123.56z"/>
				<path id="&lt;Path&gt;" class="s7" d="m1719.9 1265.8c0 23.69-19.2 42.89-42.89 42.89-23.68 0-42.88-19.2-42.88-42.89 0-23.68 19.2-42.88 42.88-42.88 23.69 0 42.89 19.2 42.89 42.88z"/>
			</g>
		</g>
	</g>
</svg>