<svg xmlns="http://www.w3.org/2000/svg" viewBox="0 0 128 128" role="img" aria-label="YouTube Search">
  <rect width="128" height="128" rx="28" fill="#ff0033"/>
  <path fill="#fff" d="M100.9 43.7c-.9-3.5-3.7-6.2-7.1-7.1C87.5 35 64 35 64 35s-23.5 0-29.8 1.6c-3.5.9-6.2 3.7-7.1 7.1C25.5 50 25.5 64 25.5 64s0 14 1.6 20.3c.9 3.5 3.7 6.2 7.1 7.1C40.5 93 64 93 64 93s23.5 0 29.8-1.6c3.5-.9 6.2-3.7 7.1-7.1 1.6-6.3 1.6-20.3 1.6-20.3s0-14-1.6-20.3z"/>
  <path fill="#ff0033" d="M56.3 76.4V51.6L77.8 64 56.3 76.4z"/>
</svg>

